<svg id="Group_19" data-name="Group 19" xmlns="http://www.w3.org/2000/svg" width="280.586" height="55.35" viewBox="0 0 280.586 55.35">
  <path id="facebook" d="M62.939,35.47A27.47,27.47,0,1,0,31.177,62.607V43.41H24.2V35.47h6.978V29.417c0-6.884,4.1-10.687,10.375-10.687a42.275,42.275,0,0,1,6.15.536v6.757H44.238c-3.412,0-4.476,2.118-4.476,4.29V35.47H47.38L46.162,43.41h-6.4v19.2A27.48,27.48,0,0,0,62.939,35.47Z" transform="translate(-8 -7.827)" fill="#e3e4f6"/>
  <path id="square-instagram" d="M27.39,52.868a6.522,6.522,0,1,0,6.525,6.523A6.522,6.522,0,0,0,27.39,52.868Zm15.249-5.013a6.6,6.6,0,0,0-3.718-3.718c-2.568-1.014-8.682-.786-11.531-.786s-8.957-.236-11.532.786a6.6,6.6,0,0,0-3.718,3.718c-1.012,2.568-.786,8.688-.786,11.534s-.226,8.959.791,11.536a6.6,6.6,0,0,0,3.718,3.718c2.568,1.014,8.682.786,11.532.786s8.956.236,11.531-.786a6.6,6.6,0,0,0,3.718-3.718c1.021-2.568.786-8.688.786-11.534s.235-8.958-.786-11.534ZM27.39,69.416a10.014,10.014,0,1,1,7.093-2.933A10.027,10.027,0,0,1,27.39,69.416ZM37.83,51.283a2.327,2.327,0,1,1,1.659-.683,2.34,2.34,0,0,1-1.659.683ZM48.91,32H5.869A5.869,5.869,0,0,0,0,37.869V80.91A5.869,5.869,0,0,0,5.869,86.78H48.91A5.869,5.869,0,0,0,54.78,80.91V37.869A5.869,5.869,0,0,0,48.91,32ZM46.817,67.46c-.158,3.134-.873,5.911-3.161,8.192s-5.062,3.012-8.192,3.161c-3.229.182-12.911.182-16.14,0-3.134-.158-5.9-.874-8.192-3.161S8.119,70.588,7.97,67.46c-.182-3.231-.182-12.914,0-16.14.158-3.134.864-5.911,3.161-8.192s5.071-3,8.192-3.152c3.229-.182,12.911-.182,16.14,0,3.134.158,5.91.874,8.192,3.161s3.012,5.065,3.161,8.2C47,54.553,47,64.227,46.817,67.46Z" transform="translate(112.983 -32)" fill="#e2e3f7"/>
  <path id="linkedin-in" d="M12.262,54.79H.9V18.216H12.262ZM6.577,13.227a6.609,6.609,0,1,1,6.577-6.64A6.633,6.633,0,0,1,6.577,13.227ZM54.767,54.79H43.435v-17.8c0-4.243-.086-9.684-5.9-9.684-5.9,0-6.81,4.61-6.81,9.379V54.79H19.376V18.216H30.268v4.989h.159A11.933,11.933,0,0,1,41.173,17.3c11.494,0,13.607,7.569,13.607,17.4V54.79Z" transform="translate(225.807 0.561)" fill="#e2e3f7"/>
</svg>
