<svg id="S_TBDelete_22_N_2x" data-name="S_TBDelete_22_N@2x" xmlns="http://www.w3.org/2000/svg" width="44" height="44" viewBox="0 0 44 44">
  <defs>
    <style>
      .cls-1 {
        fill-rule: evenodd;
      }

      
    </style>
  </defs>
  <title>S_TBDelete_22_N@2x</title>
  <path class="cls-1" d="M37,9H30V6a2,2,0,0,0-2-2H15a2,2,0,0,0-2,2V9H6a1,1,0,0,0-1,1v2a1,1,0,0,0,1,1H7.5L9.913,39.054a1,1,0,0,0,1,.9H32.092a1,1,0,0,0,1-.9L35.5,13H37a1,1,0,0,0,1-1V10A1,1,0,0,0,37,9ZM16,7H27V9H16Zm-.3,28h-.983a1,1,0,0,1-1-.917L12.306,17.162a1,1,0,0,1,.908-1.084l1-.088a1,1,0,0,1,1.084.909l1.4,17.021A1,1,0,0,1,15.7,35ZM23,34a1,1,0,0,1-1,1H21a1,1,0,0,1-1-1V17a1,1,0,0,1,1-1h1a1,1,0,0,1,1,1Zm6.281.085a1,1,0,0,1-1,.917H27.3a1,1,0,0,1-1-1.082l1.4-17.021a1,1,0,0,1,1.084-.909l1,.088a1,1,0,0,1,.908,1.084Z" fill = '#FF4C87'/>
  </svg>