<svg xmlns="http://www.w3.org/2000/svg" viewBox="0 0 303.88 212.4"><defs><style>.cls-1{fill:#252A4A;}</style></defs><g id="Layer_2" data-name="Layer 2"><g id="Layer_1-2" data-name="Layer 1"><path class="cls-1" d="M271.09,106.16,157,15,27.56,193.73c1.75.1,3.05.23,4.36.23q92.34.42,184.67.87a8.68,8.68,0,0,0,6.82-2.88c15.71-15.88,31.56-31.62,47.37-47.41a10.76,10.76,0,0,0,2.69-3.84q-10.05,2.45-20.09,4.89-22.9,5.53-45.81,11.07c-3.28.8-5.33-.3-6.3-3.51l-28-93,1-.34c2.81,7.06,5.65,14.1,8.4,21.18,8.08,20.79,16.19,41.57,24.09,62.44,1.2,3.16,2.55,3.42,5.51,2.53,27-8.13,54-16.11,81-24.12,4.39-1.3,7.47-.49,9.36,2.35,2,3,1.56,6.22-1.77,9.76q-35.07,37.17-70.17,74.3c-2.54,2.69-5.6,3.39-9.13,3.41-48.2.2-96.39.51-144.58.68q-33,.12-65.93-.19A14.67,14.67,0,0,1,4,210.44c-4.73-2.81-5.3-8.71-1.57-13.72,9.71-13,19.4-26,29.27-38.87Q90.44,81.22,149.28,4.66c4.55-5.92,7.27-6.13,12.79-1q53.84,49.85,107.66,99.7c.72.66,1.41,1.35,2.12,2Z"/></g></g></svg>